<?xml version="1.0" encoding="UTF-8" standalone="no"?>
<!-- Created with Inkscape (http://www.inkscape.org/) -->

<svg
   xmlns:dc="http://purl.org/dc/elements/1.1/"
   xmlns:cc="http://creativecommons.org/ns#"
   xmlns:rdf="http://www.w3.org/1999/02/22-rdf-syntax-ns#"
   xmlns:svg="http://www.w3.org/2000/svg"
   xmlns="http://www.w3.org/2000/svg"
   xmlns:xlink="http://www.w3.org/1999/xlink"
   xmlns:sodipodi="http://sodipodi.sourceforge.net/DTD/sodipodi-0.dtd"
   xmlns:inkscape="http://www.inkscape.org/namespaces/inkscape"
   width="420"
   height="420"
   viewBox="0 0 111.125 111.12501"
   version="1.1"
   id="svg8"
   sodipodi:docname="Elims_Bunny_Logo.svg"
   inkscape:version="0.92.4 (5da689c313, 2019-01-14)"
   inkscape:export-filename="L:\Elektronik\Projekte\Elims_Bunny_Logo.png"
   inkscape:export-xdpi="96"
   inkscape:export-ydpi="96">
  <defs
     id="defs2" />
  <sodipodi:namedview
     id="base"
     pagecolor="#ffffff"
     bordercolor="#666666"
     borderopacity="1.0"
     inkscape:pageopacity="1"
     inkscape:pageshadow="2"
     inkscape:zoom="1.979899"
     inkscape:cx="189.63889"
     inkscape:cy="215.58716"
     inkscape:document-units="px"
     inkscape:current-layer="layer1"
     showgrid="true"
     showguides="true"
     inkscape:guide-bbox="true"
     inkscape:snap-object-midpoints="true"
     inkscape:snap-global="false"
     inkscape:window-width="3440"
     inkscape:window-height="1377"
     inkscape:window-x="-8"
     inkscape:window-y="-8"
     inkscape:window-maximized="1"
     units="px"
     fit-margin-top="10"
     fit-margin-right="10"
     fit-margin-bottom="10"
     fit-margin-left="10"
     inkscape:pagecheckerboard="false">
    <inkscape:grid
       type="xygrid"
       id="grid4529"
       visible="true"
       enabled="true"
       originx="-71.964774"
       originy="-138.55983" />
    <sodipodi:guide
       position="-51.315752,55.926151"
       orientation="0,1"
       id="guide4541"
       inkscape:locked="false" />
    <sodipodi:guide
       position="55.5625,216.95835"
       orientation="1,0"
       id="guide863"
       inkscape:locked="false" />
  </sodipodi:namedview>
  <metadata
     id="metadata5">
    <rdf:RDF>
      <cc:Work
         rdf:about="">
        <dc:format>image/svg+xml</dc:format>
        <dc:type
           rdf:resource="http://purl.org/dc/dcmitype/StillImage" />
        <dc:title></dc:title>
      </cc:Work>
    </rdf:RDF>
  </metadata>
  <g
     inkscape:label="Bunny"
     inkscape:groupmode="layer"
     id="layer1"
     transform="translate(-71.964777,-47.315156)"
     style="display:inline">
    <g
       id="g4688"
       transform="matrix(1.199277,0,0,1.199277,-7.1403905,-34.727479)"
       style="fill:#000000;fill-opacity:1">
      <path
         id="path4531"
         d="m 96.610817,74.675772 c -6.988986,11.969563 -1.736381,27.209858 4.942853,37.811648 a 15.875001,17.197912 0 0 0 -4.942853,12.45919 15.875001,17.197912 0 0 0 1.116728,6.29315 c 3.195025,1.38731 6.498275,2.29047 9.880015,2.70733 a 5.1314468,5.1314468 0 0 1 4.87826,-3.54862 5.1314468,5.1314468 0 0 1 4.83691,3.43441 c 3.28914,-0.46942 6.62299,-1.37442 9.97562,-2.70784 a 15.875001,17.197912 0 0 0 1.06247,-6.17843 15.875001,17.197912 0 0 0 -3.75068,-11.1001 c 0.55257,-1.30308 0.73358,-1.88437 1.10484,-3.45199 2.55829,2.63713 25.70031,3.12519 19.84375,-15.874999 -7.68416,2.279176 -16.12138,3.521172 -25.13541,3.968751 -2.18742,3.560428 -3.50611,7.103108 -3.88504,9.840228 a 15.875001,17.197912 0 0 0 -4.05246,-0.57981 15.875001,17.197912 0 0 0 -2.57401,0.23358 C 110.78337,93.204567 105.17147,83.441442 96.610817,74.675772 Z m 9.260413,41.010418 a 5.2916888,5.291664 0 0 1 5.29167,5.29167 5.2916888,5.291664 0 0 1 -5.29167,5.29166 5.2916888,5.291664 0 0 1 -5.29166,-5.29166 5.2916888,5.291664 0 0 1 5.29166,-5.29167 z m 13.22917,0 a 5.2916864,5.291664 0 0 1 5.29167,5.29167 5.2916864,5.291664 0 0 1 -5.29167,5.29166 5.2916864,5.291664 0 0 1 -5.29167,-5.29166 5.2916864,5.291664 0 0 1 5.29167,-5.29167 z m -12.47314,2.57142 a 3.3341185,3.3341185 0 0 0 -3.33416,3.33416 3.3341185,3.3341185 0 0 0 3.33416,3.33416 3.3341185,3.3341185 0 0 0 3.33365,-3.33416 3.3341185,3.3341185 0 0 0 -3.33365,-3.33416 z m 11.71711,0 a 3.3341183,3.3341183 0 0 0 -3.33416,3.33416 3.3341183,3.3341183 0 0 0 3.33416,3.33416 3.3341183,3.3341183 0 0 0 3.33417,-3.33416 3.3341183,3.3341183 0 0 0 -3.33417,-3.33416 z m 7.29568,16.29048 c -2.71089,0.90281 -5.42036,1.54048 -8.11113,1.90996 a 5.1314468,5.1314468 0 0 1 -5.0431,4.20336 5.1314468,5.1314468 0 0 1 -5.01727,-4.08296 c -2.72638,-0.31957 -5.40758,-0.93158 -8.024313,-1.83554 a 15.875001,17.197912 0 0 0 13.041583,7.40161 15.875001,17.197912 0 0 0 13.15423,-7.59643 z"
         style="opacity:1;fill:#000000;fill-opacity:1;stroke:none;stroke-width:9.79899979;stroke-linecap:butt;stroke-linejoin:round;stroke-miterlimit:4;stroke-dasharray:none;stroke-dashoffset:0;stroke-opacity:1"
         inkscape:connector-curvature="0" />
      <path
         id="path4539"
         transform="matrix(0.26458333,0,0,0.26458333,71.964777,70.598501)"
         d="m 108.15234,264.04688 -10.291012,17.14843 c 11.922542,7.15351 24.147642,11.91242 36.472652,14.3086 3.64104,-6.59816 10.67549,-11.11914 18.66993,-11.11914 7.99501,0 15.03474,4.52212 18.67773,11.12109 12.32537,-2.39611 24.54977,-7.15683 36.47266,-14.31055 l -10.28907,-17.14843 c -30.81135,18.48676 -58.90157,18.48676 -89.71289,0 z"
         style="color:#000000;font-style:normal;font-variant:normal;font-weight:normal;font-stretch:normal;font-size:medium;line-height:normal;font-family:sans-serif;font-variant-ligatures:normal;font-variant-position:normal;font-variant-caps:normal;font-variant-numeric:normal;font-variant-alternates:normal;font-feature-settings:normal;text-indent:0;text-align:start;text-decoration:none;text-decoration-line:none;text-decoration-style:solid;text-decoration-color:#000000;letter-spacing:normal;word-spacing:normal;text-transform:none;writing-mode:lr-tb;direction:ltr;text-orientation:mixed;dominant-baseline:auto;baseline-shift:baseline;text-anchor:start;white-space:normal;shape-padding:0;clip-rule:nonzero;display:inline;overflow:visible;visibility:visible;opacity:1;isolation:auto;mix-blend-mode:normal;color-interpolation:sRGB;color-interpolation-filters:linearRGB;solid-color:#000000;solid-opacity:1;vector-effect:none;fill:#000000;fill-opacity:1;fill-rule:nonzero;stroke:none;stroke-width:20;stroke-linecap:butt;stroke-linejoin:miter;stroke-miterlimit:4;stroke-dasharray:none;stroke-dashoffset:0;stroke-opacity:1;color-rendering:auto;image-rendering:auto;shape-rendering:auto;text-rendering:auto;enable-background:accumulate"
         inkscape:connector-curvature="0" />
      <path
         inkscape:connector-curvature="0"
         id="path4619-5"
         d="m 112.44727,147.66992 c -2.0925,0 -3.8086,1.7161 -3.8086,3.8086 0,2.0925 1.7161,3.80859 3.8086,3.80859 2.0925,0 3.80859,-1.71609 3.80859,-3.80859 0,-2.0925 -1.71609,-3.8086 -3.80859,-3.8086 z m 0,1.81836 c 1.11055,0 1.99218,0.87968 1.99218,1.99024 0,1.11055 -0.88163,1.99218 -1.99218,1.99218 -1.11056,0 -1.99024,-0.88163 -1.99024,-1.99218 0,-1.11056 0.87968,-1.99024 1.99024,-1.99024 z"
         style="color:#000000;font-style:normal;font-variant:normal;font-weight:normal;font-stretch:normal;font-size:medium;line-height:normal;font-family:sans-serif;font-variant-ligatures:normal;font-variant-position:normal;font-variant-caps:normal;font-variant-numeric:normal;font-variant-alternates:normal;font-feature-settings:normal;text-indent:0;text-align:start;text-decoration:none;text-decoration-line:none;text-decoration-style:solid;text-decoration-color:#000000;letter-spacing:normal;word-spacing:normal;text-transform:none;writing-mode:lr-tb;direction:ltr;text-orientation:mixed;dominant-baseline:auto;baseline-shift:baseline;text-anchor:start;white-space:normal;shape-padding:0;clip-rule:nonzero;display:inline;overflow:visible;visibility:visible;opacity:1;isolation:auto;mix-blend-mode:normal;color-interpolation:sRGB;color-interpolation-filters:linearRGB;solid-color:#000000;solid-opacity:1;vector-effect:none;fill:#000000;fill-opacity:1;fill-rule:nonzero;stroke:none;stroke-width:1.81693769;stroke-linecap:butt;stroke-linejoin:round;stroke-miterlimit:4;stroke-dasharray:none;stroke-dashoffset:0;stroke-opacity:1;color-rendering:auto;image-rendering:auto;shape-rendering:auto;text-rendering:auto;enable-background:accumulate" />
    </g>
  </g>
  <g
     inkscape:groupmode="layer"
     id="layer3"
     inkscape:label="Red Gag"
     style="display:inline"
     transform="translate(0,21.125008)">
    <ellipse
       style="display:inline;opacity:1;fill:#ff001c;fill-opacity:1;stroke:none;stroke-width:14.78441525;stroke-linecap:butt;stroke-linejoin:round;stroke-miterlimit:4;stroke-dasharray:none;stroke-dashoffset:0;stroke-opacity:1"
       id="path827"
       cx="55.796494"
       cy="59.370319"
       rx="6.1875186"
       ry="6.18752" />
  </g>
  <g
     inkscape:groupmode="layer"
     id="layer4"
     inkscape:label="Text"
     style="display:none"
     transform="translate(0,21.125008)">
    <text
       xml:space="preserve"
       style="font-style:normal;font-variant:normal;font-weight:normal;font-stretch:normal;font-size:16.93333244px;line-height:1.25;font-family:'Franklin Gothic Demi';-inkscape-font-specification:'Franklin Gothic Demi, Normal';font-variant-ligatures:normal;font-variant-caps:normal;font-variant-numeric:normal;font-feature-settings:normal;text-align:center;letter-spacing:0px;word-spacing:0px;writing-mode:lr-tb;text-anchor:middle;display:inline;fill:#000000;fill-opacity:1;stroke:none;stroke-width:0.26458332"
       id="text853"
       transform="translate(0,2.1166667)"><textPath
         xlink:href="#path858"
         startOffset="50%"
         id="textPath860"
         style="font-style:normal;font-variant:normal;font-weight:normal;font-stretch:normal;font-size:14.11111069px;font-family:'Franklin Gothic Demi';-inkscape-font-specification:'Franklin Gothic Demi, Normal';font-variant-ligatures:normal;font-variant-caps:normal;font-variant-numeric:normal;font-feature-settings:normal;text-align:center;letter-spacing:1.32291663px;writing-mode:lr-tb;text-anchor:middle;stroke-width:0.26458332">Bad Bunny Works - by Ξlims </textPath></text>
    <circle
       style="opacity:1;fill:none;fill-opacity:1;stroke:none;stroke-width:0.30628306;stroke-linecap:butt;stroke-linejoin:round;stroke-miterlimit:4;stroke-dasharray:none;stroke-dashoffset:0;stroke-opacity:1"
       id="path858"
       cx="-51.878021"
       cy="-43.508892"
       r="46.708168"
       transform="matrix(-0.07131355,-0.99745395,-0.99745395,0.07131355,0,0)" />
  </g>
  <g
     inkscape:groupmode="layer"
     id="layer2"
     inkscape:label="Tears"
     style="display:none"
     transform="translate(0,21.125008)">
    <path
       transform="translate(-71.964778,-68.440165)"
       style="display:inline;fill:#55ddff;fill-opacity:1;stroke:none;stroke-width:0.26458332px;stroke-linecap:butt;stroke-linejoin:miter;stroke-opacity:1"
       d="m 118.31051,122.64376 c 0.45787,-0.11378 0.80329,0.0973 1.2394,0.2437 1.05833,1.85208 3.7856,2.65418 5.63768,0.53752 1.59681,-0.11498 2.01459,0.0632 2.53517,0.25414 0,0 0.94723,3.81476 0.3064,4.03995 -0.82501,0.28989 -0.11914,-2.71722 -1.05516,-2.61893 -0.45943,0.0483 0.20482,1.23889 -0.23959,1.365 -0.34814,0.0988 -0.1995,-0.40757 -0.72138,-0.81135 -0.21926,-0.16964 -0.4005,-0.0674 -1.12135,0.18586 -2.75886,0.9692 -5.69625,-0.66196 -6.58117,-3.19588 z"
       id="path829"
       inkscape:connector-curvature="0"
       sodipodi:nodetypes="ccccsaasscc" />
    <path
       transform="translate(-71.964778,-68.440165)"
       style="display:inline;fill:#55ddff;fill-opacity:1;stroke:none;stroke-width:0.26458332px;stroke-linecap:butt;stroke-linejoin:miter;stroke-opacity:1"
       d="m 115.0469,122.64562 c -0.45787,-0.11378 -0.80329,0.0973 -1.2394,0.2437 -1.05833,1.85208 -3.7856,2.65418 -5.63768,0.53752 -1.59681,-0.11498 -2.01459,0.0632 -2.53517,0.25414 0,0 -0.94723,3.81476 -0.3064,4.03995 0.82501,0.28989 0.11914,-2.71722 1.05516,-2.61893 0.45943,0.0483 -0.20482,1.23889 0.23959,1.365 0.34814,0.0988 0.1995,-0.40757 0.72138,-0.81135 0.21926,-0.16964 0.4005,-0.0674 1.12135,0.18586 2.75886,0.9692 5.69625,-0.66196 6.58117,-3.19588 z"
       id="path829-3"
       inkscape:connector-curvature="0"
       sodipodi:nodetypes="ccccsaasscc" />
  </g>
</svg>
